<svg xmlns="http://www.w3.org/2000/svg" height="64" viewBox="0 0 1275 263" version="1.1">
  <path d="M 122.040 9.500 C 122.057 10.050, 122.723 13.200, 123.520 16.500 C 125.368 24.152, 125.393 35.769, 123.583 45.228 C 119.537 66.376, 106.771 87.512, 80.721 116.189 C 62.510 136.237, 58.521 141.083, 52.039 151.043 C 40.376 168.963, 35.011 183.068, 36.580 191.685 C 37.684 197.751, 42.752 206.847, 47.889 211.984 C 57.010 221.105, 74.146 226.772, 88.834 225.524 C 101.296 224.466, 116.997 217.467, 128.483 207.849 C 136.053 201.512, 154.601 175.798, 163.001 159.998 C 168.432 149.783, 168.208 149.739, 156.216 158.672 C 150.680 162.797, 145.744 168.110, 135.643 180.820 C 128.334 190.016, 120.362 199.249, 117.927 201.336 C 111.944 206.464, 100.858 211.790, 93.233 213.200 C 85.490 214.632, 72.063 213.093, 66.198 210.101 C 55.694 204.742, 51.603 198.263, 51.610 187 C 51.616 178.712, 54.005 171.539, 60.120 161.448 C 64.010 155.031, 79.723 136.288, 95.867 118.808 C 113.515 99.700, 124.909 82.513, 129.880 67.500 C 135.719 49.868, 135.887 37.228, 130.463 23.688 C 128.072 17.721, 121.976 7.452, 122.040 9.500" stroke="none" fill="#53a3ee" fill-rule="evenodd"/>
  <path d="M 1083 134.460 L 1083 226 1091.500 226 L 1100 226 1100 209.700 L 1100 193.400 1112.082 179.191 C 1118.726 171.377, 1124.541 165.217, 1125.004 165.502 C 1125.466 165.788, 1134.092 179.511, 1144.172 195.999 L 1162.500 225.976 1172.309 225.988 C 1179.874 225.997, 1181.954 225.714, 1181.401 224.750 C 1180.441 223.074, 1164.131 197.107, 1148.610 172.541 C 1141.675 161.564, 1136.009 152.114, 1136.020 151.541 C 1136.031 150.969, 1144.806 140.011, 1155.520 127.192 C 1166.234 114.372, 1175 103.459, 1175 102.942 C 1175 102.420, 1170.837 102, 1165.668 102 L 1156.337 102 1145.243 115.750 C 1116.434 151.455, 1102.396 168.370, 1101.258 168.749 C 1100.278 169.074, 1099.961 155.855, 1099.758 106.331 L 1099.500 43.500 1091.250 43.210 L 1083 42.919 1083 134.460 M 321 56.516 C 296.196 61.584, 277.791 78.246, 268.612 103.941 C 259.246 130.161, 260.592 165.071, 271.872 188.500 C 279.490 204.322, 289.137 214.407, 303.500 221.565 C 326.159 232.856, 353.502 230.882, 372.894 216.556 C 380.300 211.085, 385.347 205.434, 384.356 203.721 C 383.129 201.601, 376.121 194, 375.393 194 C 375.056 194, 372.242 196.323, 369.140 199.163 C 361.662 206.008, 351.065 211.005, 341.893 212.012 C 314.427 215.027, 293.475 199.405, 284.800 169.443 C 282.750 162.364, 282.500 159.379, 282.500 142 C 282.500 120.060, 283.774 113.355, 290.473 100.054 C 305.616 69.984, 342.237 61.804, 366.383 83.098 L 371.266 87.404 373.698 84.452 C 375.035 82.828, 377.324 79.978, 378.784 78.118 L 381.439 74.736 376.478 70.432 C 369.856 64.687, 357.874 58.418, 349.945 56.549 C 342.181 54.719, 329.864 54.705, 321 56.516 M 432.302 56.560 C 414.181 60.533, 399.763 74.028, 396.398 90.165 C 393.664 103.279, 397.369 117.016, 406.027 125.867 C 412.641 132.628, 421.811 137.972, 443 147.416 C 453.725 152.195, 464.430 157.237, 466.790 158.619 C 478.014 165.192, 482 171.680, 482 183.375 C 482 196.270, 475.513 205.031, 462.282 210.006 C 457.692 211.732, 454.326 212.183, 445.956 212.190 C 428.334 212.206, 418.978 208.403, 400.753 193.813 L 398.005 191.613 393.048 197.057 C 390.322 200.051, 388.070 203.010, 388.045 203.634 C 387.942 206.226, 400.291 215.614, 410.701 220.857 C 421.450 226.269, 430.939 228.402, 444.500 228.453 C 458.178 228.504, 464.360 227.266, 474.607 222.422 C 491.523 214.426, 500.976 199.755, 500.976 181.500 C 500.976 168.520, 497.074 159.085, 488.321 150.897 C 482.281 145.247, 474.644 140.962, 455.500 132.478 C 424.823 118.883, 417.455 113.896, 415.002 105.065 C 410.789 89.899, 419.115 76.875, 435.787 72.555 C 450.533 68.734, 466.659 72.495, 480.618 83.010 L 485.735 86.865 490.563 81.273 L 495.390 75.682 490.292 70.994 C 483.840 65.061, 470.656 58.510, 461.185 56.530 C 452.400 54.693, 440.762 54.705, 432.302 56.560 M 552.250 56.517 C 537.347 59.754, 524.573 69.345, 518.728 81.685 C 515.719 88.038, 515.502 89.212, 515.529 99 C 515.554 108.174, 515.887 110.210, 518.164 115.120 C 523.916 127.523, 533.225 134.358, 561.515 146.950 C 589.292 159.313, 595.447 163.334, 599.700 171.892 C 602.347 177.219, 602.113 190.128, 599.270 195.568 C 597.132 199.661, 591.035 205.840, 587.010 207.995 C 578.707 212.438, 560.572 213.637, 549.429 210.480 C 541.480 208.228, 529.980 201.992, 523.385 196.358 C 517.276 191.138, 517.654 191.053, 510.838 199.194 L 506.737 204.091 509.119 206.640 C 512.882 210.666, 527.394 219.940, 534.770 223.032 C 553.557 230.907, 577.816 230.712, 594.091 222.554 C 604.775 217.198, 611.309 210.915, 616.060 201.425 C 623.530 186.508, 621.391 166.329, 611.015 153.813 C 606.023 147.792, 595.225 141.399, 574.877 132.420 C 564.329 127.765, 553.038 122.539, 549.787 120.806 C 537.324 114.163, 531.209 103.180, 533.935 92.335 C 536.446 82.347, 542.458 76.483, 553.770 72.989 C 568.618 68.403, 585.475 71.994, 599.868 82.808 L 605.214 86.826 609.607 81.879 C 612.023 79.159, 614 76.284, 614 75.490 C 614 73.236, 604.313 66.094, 595.500 61.849 C 581.947 55.321, 566.513 53.418, 552.250 56.517 M 680.703 58.631 C 680.316 59.017, 680 96.833, 680 142.667 L 680 226 689.489 226 L 698.977 226 699.239 185.750 L 699.500 145.500 739.500 145.500 L 779.500 145.500 780 185.500 L 780.500 225.500 789.756 225.788 L 799.011 226.075 798.756 142.288 L 798.500 58.500 789.500 58.500 L 780.500 58.500 780.237 93.750 L 779.974 129 739.500 129 L 699.026 129 698.763 93.750 L 698.500 58.500 689.953 58.214 C 685.252 58.057, 681.089 58.244, 680.703 58.631 M 867.500 100.097 C 861.166 101.371, 847.479 108.051, 843.334 111.889 C 828.074 126.023, 821.197 144.364, 822.297 168 C 823.251 188.516, 827.886 200.096, 839.914 212.020 C 848.669 220.699, 854.743 224.249, 865.585 227.022 C 874.714 229.357, 881.035 229.488, 890.257 227.533 C 910.766 223.187, 927.129 206.697, 933.155 184.300 C 936.080 173.430, 936.098 154.637, 933.195 143.856 C 927.634 123.210, 913.636 107.397, 896.071 101.921 C 888.415 99.534, 874.660 98.656, 867.500 100.097 M 993.067 100.135 C 980.770 102.175, 966.750 111.566, 959.080 122.902 C 950.067 136.223, 947.618 146.210, 948.231 167.143 C 948.622 180.470, 949.030 183.488, 951.317 189.974 C 965.431 229.997, 1013.358 241.860, 1042.506 212.546 C 1050.308 204.700, 1055.770 195.358, 1058.614 185 C 1060.861 176.818, 1061.175 153.245, 1059.148 145 C 1054.892 127.691, 1042.430 111.575, 1028 104.716 C 1016.652 99.323, 1006.216 97.954, 993.067 100.135 M 1216.186 100.118 C 1195.300 103.593, 1181.848 123.207, 1187.357 142.156 C 1190.507 152.992, 1199.730 159.699, 1225.559 169.938 C 1245.337 177.778, 1252.231 183.960, 1252.231 193.854 C 1252.231 203.713, 1246.086 210.739, 1234.970 213.586 C 1223.509 216.522, 1209.760 213.503, 1197.303 205.315 C 1194.112 203.217, 1190.960 201.153, 1190.299 200.728 C 1188.799 199.763, 1180.547 210.377, 1181.290 212.314 C 1182.199 214.682, 1195.843 222.202, 1204.519 225.118 C 1224.854 231.951, 1246.181 229.085, 1258.452 217.869 C 1265.703 211.243, 1269.165 204.116, 1269.778 194.552 C 1270.927 176.648, 1262.862 167.730, 1235.783 156.961 C 1208.612 146.154, 1204.020 142.632, 1204.007 132.588 C 1203.997 125.303, 1207.534 119.864, 1214.497 116.458 C 1219.583 113.969, 1220.728 113.799, 1229.748 114.195 C 1239.710 114.632, 1245.127 116.468, 1253.154 122.128 C 1254.614 123.158, 1256.023 124, 1256.284 124 C 1256.546 124, 1258.676 121.462, 1261.019 118.359 L 1265.278 112.718 1262.889 110.832 C 1261.575 109.795, 1256.900 107.181, 1252.500 105.023 C 1241.136 99.450, 1229.582 97.889, 1216.186 100.118 M 871.962 114.923 C 862.123 116.851, 851.633 125.741, 846.570 136.443 C 839.076 152.285, 839.208 176.177, 846.880 192.246 C 850.317 199.446, 857.490 207.091, 863.570 210.034 C 876.983 216.527, 893.803 213.447, 903.728 202.680 C 912.739 192.903, 916.451 181.593, 916.422 164 C 916.400 150.637, 915.031 144.047, 910.337 134.714 C 902.795 119.718, 887.569 111.866, 871.962 114.923 M 997 114.876 C 983.538 117.791, 972.752 129.903, 968.394 147 C 966.209 155.575, 966.202 172.385, 968.382 181 C 974.096 203.589, 990.245 216.134, 1009.561 212.990 C 1021.725 211.010, 1030.512 204.035, 1036.450 191.645 C 1040.951 182.254, 1042.415 173.344, 1041.723 159.544 C 1040.654 138.205, 1031.671 122.774, 1016.668 116.506 C 1012.464 114.749, 1001.703 113.857, 997 114.876" stroke="none" fill="#d7d7e0" fill-rule="evenodd" />
  <path d="M 92.133 39.280 C 88.183 47.597, 70.524 74.059, 61.674 84.922 C 58.279 89.090, 49.973 98.800, 43.216 106.500 C 16.689 136.733, 6.191 157.249, 5.215 180.769 C 4.502 197.929, 8.422 210.474, 19.738 227.245 C 25.499 235.783, 46.136 249.636, 60.548 254.639 C 67.909 257.195, 69.689 257.403, 84.500 257.450 C 99.677 257.497, 100.912 257.352, 108.500 254.620 C 112.900 253.036, 119.200 250.385, 122.500 248.730 C 145.883 237.002, 170.653 211.407, 190.792 178.160 C 199.373 163.994, 213.723 133.543, 211.175 134.907 C 208.072 136.567, 197.537 147.659, 193.888 153.107 C 191.902 156.073, 185.539 165.759, 179.749 174.631 C 151.656 217.681, 130.218 237.293, 104.060 243.876 C 94.224 246.351, 85.234 246.546, 72.078 244.571 C 58.019 242.460, 48.144 237.259, 37.010 226.100 C 23.775 212.836, 19.893 203.577, 19.913 185.320 C 19.925 173.535, 21.486 165.937, 26.380 153.837 C 32.697 138.222, 36.570 132.782, 59.090 107.889 C 79.619 85.198, 89.303 66.947, 94.548 41.061 C 95.460 36.558, 96.048 32.720, 95.853 32.532 C 95.659 32.344, 93.985 35.380, 92.133 39.280" stroke="none" fill="#b5b4c5" fill-rule="evenodd" />
</svg>