<svg xmlns="http://www.w3.org/2000/svg" height="64" viewBox="0 0 263 263" version="1.1">
  <circle cx="131" cy="131" r="131" fill="#282730" />
  <g style="transform:scale(0.75) translateX(64px) translateY(32px)">
    <path d="M 122.040 9.500 C 122.057 10.050, 122.723 13.200, 123.520 16.500 C 125.368 24.152, 125.393 35.769, 123.583 45.228 C 119.537 66.376, 106.771 87.512, 80.721 116.189 C 62.510 136.237, 58.521 141.083, 52.039 151.043 C 40.376 168.963, 35.011 183.068, 36.580 191.685 C 37.684 197.751, 42.752 206.847, 47.889 211.984 C 57.010 221.105, 74.146 226.772, 88.834 225.524 C 101.296 224.466, 116.997 217.467, 128.483 207.849 C 136.053 201.512, 154.601 175.798, 163.001 159.998 C 168.432 149.783, 168.208 149.739, 156.216 158.672 C 150.680 162.797, 145.744 168.110, 135.643 180.820 C 128.334 190.016, 120.362 199.249, 117.927 201.336 C 111.944 206.464, 100.858 211.790, 93.233 213.200 C 85.490 214.632, 72.063 213.093, 66.198 210.101 C 55.694 204.742, 51.603 198.263, 51.610 187 C 51.616 178.712, 54.005 171.539, 60.120 161.448 C 64.010 155.031, 79.723 136.288, 95.867 118.808 C 113.515 99.700, 124.909 82.513, 129.880 67.500 C 135.719 49.868, 135.887 37.228, 130.463 23.688 C 128.072 17.721, 121.976 7.452, 122.040 9.500" stroke="none" fill="#53a3ee" fill-rule="evenodd"/>
    <path d="M 92.133 39.280 C 88.183 47.597, 70.524 74.059, 61.674 84.922 C 58.279 89.090, 49.973 98.800, 43.216 106.500 C 16.689 136.733, 6.191 157.249, 5.215 180.769 C 4.502 197.929, 8.422 210.474, 19.738 227.245 C 25.499 235.783, 46.136 249.636, 60.548 254.639 C 67.909 257.195, 69.689 257.403, 84.500 257.450 C 99.677 257.497, 100.912 257.352, 108.500 254.620 C 112.900 253.036, 119.200 250.385, 122.500 248.730 C 145.883 237.002, 170.653 211.407, 190.792 178.160 C 199.373 163.994, 213.723 133.543, 211.175 134.907 C 208.072 136.567, 197.537 147.659, 193.888 153.107 C 191.902 156.073, 185.539 165.759, 179.749 174.631 C 151.656 217.681, 130.218 237.293, 104.060 243.876 C 94.224 246.351, 85.234 246.546, 72.078 244.571 C 58.019 242.460, 48.144 237.259, 37.010 226.100 C 23.775 212.836, 19.893 203.577, 19.913 185.320 C 19.925 173.535, 21.486 165.937, 26.380 153.837 C 32.697 138.222, 36.570 132.782, 59.090 107.889 C 79.619 85.198, 89.303 66.947, 94.548 41.061 C 95.460 36.558, 96.048 32.720, 95.853 32.532 C 95.659 32.344, 93.985 35.380, 92.133 39.280" stroke="none" fill="#b4b4c5" fill-rule="evenodd" />
  </g>
</svg>